<mxfile host="app.diagrams.net" modified="2023-09-20T12:48:55.379Z" agent="Mozilla/5.0 (Windows NT 10.0; Win64; x64) AppleWebKit/537.36 (KHTML, like Gecko) Chrome/116.0.0.0 Safari/537.36" etag="SIZVnEhx0l9_PWJYmLV0" version="21.7.5" type="device">
  <diagram name="Страница — 1" id="KG0pTABZSyMienC2gOvi">
    <mxGraphModel dx="2261" dy="758" grid="1" gridSize="10" guides="1" tooltips="1" connect="1" arrows="1" fold="1" page="1" pageScale="1" pageWidth="827" pageHeight="1169" math="0" shadow="0">
      <root>
        <mxCell id="0" />
        <mxCell id="1" parent="0" />
        <mxCell id="4_MRTfHyWY46cSX3TB6Z-3" value="Flights" style="swimlane;whiteSpace=wrap;html=1;swimlaneLine=1;gradientColor=none;rounded=0;horizontal=1;container=1;" parent="1" vertex="1">
          <mxGeometry x="280" y="424" width="300" height="340" as="geometry" />
        </mxCell>
        <mxCell id="4_MRTfHyWY46cSX3TB6Z-7" value="&lt;div class=&quot;sc-kYBQfq iOkql&quot; style=&quot;border: 0px; font-size: 12px; font-style: normal; font-variant-ligatures: normal; font-variant-caps: normal; font-variant-alternates: inherit; font-variant-numeric: inherit; font-variant-east-asian: inherit; font-weight: 400; margin: 0px; padding: 0px; vertical-align: baseline; -webkit-box-align: center; align-items: center; cursor: default; display: grid; grid-template-columns: auto 1fr auto; column-gap: 4px; color: rgb(95, 99, 104); letter-spacing: normal; orphans: 2; text-align: left; text-indent: 0px; text-transform: none; widows: 2; word-spacing: 0px; -webkit-text-stroke-width: 0px; background-color: rgb(255, 255, 255); text-decoration-thickness: initial; text-decoration-style: initial; text-decoration-color: initial;&quot;&gt;&lt;span title=&quot;DAY&quot; class=&quot;sc-ilEZps sc-jItqcz sc-jNMaXF gQHrBF dffaWn gmIQkj&quot; style=&quot;border: 0px; font-size: 12px; font-style: inherit; font-variant: inherit; font-weight: 500; margin: 0px; padding: 0px; vertical-align: baseline; color: rgb(32, 33, 36); line-height: 16px; overflow: hidden; text-overflow: ellipsis;&quot;&gt;DAY&lt;/span&gt;&lt;/div&gt;&lt;br class=&quot;Apple-interchange-newline&quot;&gt;" style="text;whiteSpace=wrap;html=1;swimlaneLine=1;fontFamily=Helvetica;" parent="4_MRTfHyWY46cSX3TB6Z-3" vertex="1">
          <mxGeometry x="58.5" y="96" width="40" height="25" as="geometry" />
        </mxCell>
        <mxCell id="4_MRTfHyWY46cSX3TB6Z-8" value="&lt;span style=&quot;color: rgb(32, 33, 36); font-size: 12px; font-style: normal; font-variant-ligatures: normal; font-variant-caps: normal; font-weight: 500; letter-spacing: normal; orphans: 2; text-align: left; text-indent: 0px; text-transform: none; widows: 2; word-spacing: 0px; -webkit-text-stroke-width: 0px; background-color: rgb(255, 255, 255); text-decoration-thickness: initial; text-decoration-style: initial; text-decoration-color: initial; float: none; display: inline !important;&quot;&gt;DAY_OF_WEEK&lt;/span&gt;" style="text;whiteSpace=wrap;html=1;swimlaneLine=1;fontFamily=Helvetica;" parent="4_MRTfHyWY46cSX3TB6Z-3" vertex="1">
          <mxGeometry x="58.5" y="127" width="120" height="25" as="geometry" />
        </mxCell>
        <mxCell id="4_MRTfHyWY46cSX3TB6Z-9" value="&lt;span style=&quot;color: rgb(32, 33, 36); font-size: 12px; font-style: normal; font-variant-ligatures: normal; font-variant-caps: normal; font-weight: 500; letter-spacing: normal; orphans: 2; text-align: left; text-indent: 0px; text-transform: none; widows: 2; word-spacing: 0px; -webkit-text-stroke-width: 0px; background-color: rgb(255, 255, 255); text-decoration-thickness: initial; text-decoration-style: initial; text-decoration-color: initial; float: none; display: inline !important;&quot;&gt;AIRLINE&lt;/span&gt;" style="text;whiteSpace=wrap;html=1;swimlaneLine=1;fontFamily=Helvetica;" parent="4_MRTfHyWY46cSX3TB6Z-3" vertex="1">
          <mxGeometry x="58.5" y="161" width="80" height="25" as="geometry" />
        </mxCell>
        <mxCell id="4_MRTfHyWY46cSX3TB6Z-10" value="&lt;div class=&quot;sc-kYBQfq iOkql&quot; style=&quot;border: 0px; font-family: Inter, sans-serif; font-size: 12px; font-style: normal; font-variant-ligatures: normal; font-variant-caps: normal; font-variant-alternates: inherit; font-variant-numeric: inherit; font-variant-east-asian: inherit; font-variant-position: inherit; font-weight: 400; margin: 0px; padding: 0px; vertical-align: baseline; -webkit-box-align: center; align-items: center; cursor: default; display: grid; grid-template-columns: auto 1fr auto; column-gap: 4px; color: rgb(95, 99, 104); letter-spacing: normal; orphans: 2; text-align: left; text-indent: 0px; text-transform: none; widows: 2; word-spacing: 0px; -webkit-text-stroke-width: 0px; background-color: rgb(255, 255, 255); text-decoration-thickness: initial; text-decoration-style: initial; text-decoration-color: initial;&quot;&gt;&lt;span title=&quot;FLIGHT_NUMBER&quot; class=&quot;sc-ilEZps sc-jItqcz sc-jNMaXF gQHrBF dffaWn gmIQkj&quot; style=&quot;border: 0px; font-family: inherit; font-size: 12px; font-style: inherit; font-variant: inherit; font-weight: 500; margin: 0px; padding: 0px; vertical-align: baseline; color: rgb(32, 33, 36); line-height: 16px; overflow: hidden; text-overflow: ellipsis;&quot;&gt;FLIGHT_NUMBER&lt;/span&gt;&lt;/div&gt;&lt;br class=&quot;Apple-interchange-newline&quot;&gt;" style="text;whiteSpace=wrap;html=1;swimlaneLine=1;" parent="4_MRTfHyWY46cSX3TB6Z-3" vertex="1">
          <mxGeometry x="58.5" y="188" width="140" height="25" as="geometry" />
        </mxCell>
        <mxCell id="4_MRTfHyWY46cSX3TB6Z-11" value="&lt;span style=&quot;color: rgb(32, 33, 36); font-size: 12px; font-style: normal; font-variant-ligatures: normal; font-variant-caps: normal; font-weight: 500; letter-spacing: normal; orphans: 2; text-align: left; text-indent: 0px; text-transform: none; widows: 2; word-spacing: 0px; -webkit-text-stroke-width: 0px; background-color: rgb(255, 255, 255); text-decoration-thickness: initial; text-decoration-style: initial; text-decoration-color: initial; float: none; display: inline !important;&quot;&gt;TAIL_NUMBER&lt;/span&gt;" style="text;whiteSpace=wrap;html=1;swimlaneLine=1;fontFamily=Helvetica;" parent="4_MRTfHyWY46cSX3TB6Z-3" vertex="1">
          <mxGeometry x="58.5" y="218" width="120" height="25" as="geometry" />
        </mxCell>
        <mxCell id="4_MRTfHyWY46cSX3TB6Z-12" value="&lt;span style=&quot;color: rgb(32, 33, 36); font-size: 12px; font-style: normal; font-variant-ligatures: normal; font-variant-caps: normal; font-weight: 500; letter-spacing: normal; orphans: 2; text-align: left; text-indent: 0px; text-transform: none; widows: 2; word-spacing: 0px; -webkit-text-stroke-width: 0px; background-color: rgb(255, 255, 255); text-decoration-thickness: initial; text-decoration-style: initial; text-decoration-color: initial; float: none; display: inline !important;&quot;&gt;ORIGIN_AIRPORT&lt;/span&gt;" style="text;whiteSpace=wrap;html=1;swimlaneLine=1;fontFamily=Helvetica;" parent="4_MRTfHyWY46cSX3TB6Z-3" vertex="1">
          <mxGeometry x="58.5" y="249" width="140" height="25" as="geometry" />
        </mxCell>
        <mxCell id="4_MRTfHyWY46cSX3TB6Z-13" value="&lt;span style=&quot;color: rgb(32, 33, 36); font-size: 12px; font-style: normal; font-variant-ligatures: normal; font-variant-caps: normal; font-weight: 500; letter-spacing: normal; orphans: 2; text-align: left; text-indent: 0px; text-transform: none; widows: 2; word-spacing: 0px; -webkit-text-stroke-width: 0px; background-color: rgb(255, 255, 255); text-decoration-thickness: initial; text-decoration-style: initial; text-decoration-color: initial; float: none; display: inline !important;&quot;&gt;DESTINATION_AIRPORT&lt;/span&gt;" style="text;whiteSpace=wrap;html=1;swimlaneLine=1;fontFamily=Helvetica;" parent="4_MRTfHyWY46cSX3TB6Z-3" vertex="1">
          <mxGeometry x="58.5" y="279" width="170" height="25" as="geometry" />
        </mxCell>
        <mxCell id="4_MRTfHyWY46cSX3TB6Z-14" value="&lt;span style=&quot;color: rgb(32, 33, 36); font-size: 12px; font-style: normal; font-variant-ligatures: normal; font-variant-caps: normal; font-weight: 500; letter-spacing: normal; orphans: 2; text-align: left; text-indent: 0px; text-transform: none; widows: 2; word-spacing: 0px; -webkit-text-stroke-width: 0px; background-color: rgb(255, 255, 255); text-decoration-thickness: initial; text-decoration-style: initial; text-decoration-color: initial; float: none; display: inline !important;&quot;&gt;SCHEDULED_DEPARTURE&lt;/span&gt;" style="text;whiteSpace=wrap;html=1;swimlaneLine=1;fontFamily=Helvetica;" parent="4_MRTfHyWY46cSX3TB6Z-3" vertex="1">
          <mxGeometry x="58.5" y="310" width="190" height="25" as="geometry" />
        </mxCell>
        <mxCell id="4_MRTfHyWY46cSX3TB6Z-15" value="&lt;span style=&quot;color: rgb(32, 33, 36); font-size: 12px; font-style: normal; font-variant-ligatures: normal; font-variant-caps: normal; font-weight: 500; letter-spacing: normal; orphans: 2; text-align: left; text-indent: 0px; text-transform: none; widows: 2; word-spacing: 0px; -webkit-text-stroke-width: 0px; background-color: rgb(255, 255, 255); text-decoration-thickness: initial; text-decoration-style: initial; text-decoration-color: initial; float: none; display: inline !important;&quot;&gt;YEAR&lt;/span&gt;" style="text;whiteSpace=wrap;html=1;fontFamily=Helvetica;" parent="4_MRTfHyWY46cSX3TB6Z-3" vertex="1">
          <mxGeometry x="58.5" y="35" width="70" height="25" as="geometry" />
        </mxCell>
        <mxCell id="4_MRTfHyWY46cSX3TB6Z-16" value="&lt;span style=&quot;color: rgb(32, 33, 36); font-size: 12px; font-style: normal; font-variant-ligatures: normal; font-variant-caps: normal; font-weight: 500; letter-spacing: normal; orphans: 2; text-align: left; text-indent: 0px; text-transform: none; widows: 2; word-spacing: 0px; -webkit-text-stroke-width: 0px; background-color: rgb(255, 255, 255); text-decoration-thickness: initial; text-decoration-style: initial; text-decoration-color: initial; float: none; display: inline !important;&quot;&gt;MONTH&lt;/span&gt;" style="text;whiteSpace=wrap;html=1;fontFamily=Helvetica;" parent="4_MRTfHyWY46cSX3TB6Z-3" vertex="1">
          <mxGeometry x="58.5" y="66" width="80" height="25" as="geometry" />
        </mxCell>
        <mxCell id="4_MRTfHyWY46cSX3TB6Z-40" value="" style="line;strokeWidth=1;direction=south;html=1;perimeter=backbonePerimeter;points=[];outlineConnect=0;" parent="4_MRTfHyWY46cSX3TB6Z-3" vertex="1">
          <mxGeometry x="40" y="23" width="10" height="317" as="geometry" />
        </mxCell>
        <mxCell id="4_MRTfHyWY46cSX3TB6Z-41" value="&lt;div class=&quot;sc-kYBQfq iOkql&quot; style=&quot;border: 0px; font-size: 12px; font-style: normal; font-variant-ligatures: normal; font-variant-caps: normal; font-variant-alternates: inherit; font-variant-numeric: inherit; font-variant-east-asian: inherit; font-weight: 400; margin: 0px; padding: 0px; vertical-align: baseline; -webkit-box-align: center; align-items: center; cursor: default; display: grid; grid-template-columns: auto 1fr auto; column-gap: 4px; color: rgb(95, 99, 104); letter-spacing: normal; orphans: 2; text-align: left; text-indent: 0px; text-transform: none; widows: 2; word-spacing: 0px; -webkit-text-stroke-width: 0px; background-color: rgb(255, 255, 255); text-decoration-thickness: initial; text-decoration-style: initial; text-decoration-color: initial;&quot;&gt;&lt;span title=&quot;FLIGHT_NUMBER&quot; class=&quot;sc-ilEZps sc-jItqcz sc-jNMaXF gQHrBF dffaWn gmIQkj&quot; style=&quot;border: 0px; font-size: 12px; font-style: inherit; font-variant: inherit; font-weight: 500; margin: 0px; padding: 0px; vertical-align: baseline; color: rgb(32, 33, 36); line-height: 16px; overflow: hidden; text-overflow: ellipsis;&quot;&gt;&lt;/span&gt;&lt;/div&gt;PK" style="text;whiteSpace=wrap;html=1;swimlaneLine=1;fontFamily=Helvetica;" parent="4_MRTfHyWY46cSX3TB6Z-3" vertex="1">
          <mxGeometry x="8.5" y="188" width="31.5" height="25" as="geometry" />
        </mxCell>
        <mxCell id="4_MRTfHyWY46cSX3TB6Z-43" value="&lt;div class=&quot;sc-kYBQfq iOkql&quot; style=&quot;border: 0px; font-size: 12px; font-style: normal; font-variant-ligatures: normal; font-variant-caps: normal; font-variant-alternates: inherit; font-variant-numeric: inherit; font-variant-east-asian: inherit; font-weight: 400; margin: 0px; padding: 0px; vertical-align: baseline; -webkit-box-align: center; align-items: center; cursor: default; display: grid; grid-template-columns: auto 1fr auto; column-gap: 4px; color: rgb(95, 99, 104); letter-spacing: normal; orphans: 2; text-align: left; text-indent: 0px; text-transform: none; widows: 2; word-spacing: 0px; -webkit-text-stroke-width: 0px; background-color: rgb(255, 255, 255); text-decoration-thickness: initial; text-decoration-style: initial; text-decoration-color: initial;&quot;&gt;&lt;span title=&quot;FLIGHT_NUMBER&quot; class=&quot;sc-ilEZps sc-jItqcz sc-jNMaXF gQHrBF dffaWn gmIQkj&quot; style=&quot;border: 0px; font-size: 12px; font-style: inherit; font-variant: inherit; font-weight: 500; margin: 0px; padding: 0px; vertical-align: baseline; color: rgb(32, 33, 36); line-height: 16px; overflow: hidden; text-overflow: ellipsis;&quot;&gt;&lt;/span&gt;&lt;/div&gt;FK" style="text;whiteSpace=wrap;html=1;swimlaneLine=1;fontFamily=Helvetica;" parent="4_MRTfHyWY46cSX3TB6Z-3" vertex="1">
          <mxGeometry x="8.5" y="249" width="31.5" height="25" as="geometry" />
        </mxCell>
        <mxCell id="4_MRTfHyWY46cSX3TB6Z-45" value="&lt;div class=&quot;sc-kYBQfq iOkql&quot; style=&quot;border: 0px; font-size: 12px; font-style: normal; font-variant-ligatures: normal; font-variant-caps: normal; font-variant-alternates: inherit; font-variant-numeric: inherit; font-variant-east-asian: inherit; font-weight: 400; margin: 0px; padding: 0px; vertical-align: baseline; -webkit-box-align: center; align-items: center; cursor: default; display: grid; grid-template-columns: auto 1fr auto; column-gap: 4px; color: rgb(95, 99, 104); letter-spacing: normal; orphans: 2; text-align: left; text-indent: 0px; text-transform: none; widows: 2; word-spacing: 0px; -webkit-text-stroke-width: 0px; background-color: rgb(255, 255, 255); text-decoration-thickness: initial; text-decoration-style: initial; text-decoration-color: initial;&quot;&gt;&lt;span title=&quot;FLIGHT_NUMBER&quot; class=&quot;sc-ilEZps sc-jItqcz sc-jNMaXF gQHrBF dffaWn gmIQkj&quot; style=&quot;border: 0px; font-size: 12px; font-style: inherit; font-variant: inherit; font-weight: 500; margin: 0px; padding: 0px; vertical-align: baseline; color: rgb(32, 33, 36); line-height: 16px; overflow: hidden; text-overflow: ellipsis;&quot;&gt;&lt;/span&gt;&lt;/div&gt;FK" style="text;whiteSpace=wrap;html=1;swimlaneLine=1;fontFamily=Helvetica;" parent="4_MRTfHyWY46cSX3TB6Z-3" vertex="1">
          <mxGeometry x="8.5" y="279" width="31.5" height="25" as="geometry" />
        </mxCell>
        <mxCell id="4_MRTfHyWY46cSX3TB6Z-46" value="&lt;div class=&quot;sc-kYBQfq iOkql&quot; style=&quot;border: 0px; font-size: 12px; font-style: normal; font-variant-ligatures: normal; font-variant-caps: normal; font-variant-alternates: inherit; font-variant-numeric: inherit; font-variant-east-asian: inherit; font-weight: 400; margin: 0px; padding: 0px; vertical-align: baseline; -webkit-box-align: center; align-items: center; cursor: default; display: grid; grid-template-columns: auto 1fr auto; column-gap: 4px; color: rgb(95, 99, 104); letter-spacing: normal; orphans: 2; text-align: left; text-indent: 0px; text-transform: none; widows: 2; word-spacing: 0px; -webkit-text-stroke-width: 0px; background-color: rgb(255, 255, 255); text-decoration-thickness: initial; text-decoration-style: initial; text-decoration-color: initial;&quot;&gt;&lt;span title=&quot;FLIGHT_NUMBER&quot; class=&quot;sc-ilEZps sc-jItqcz sc-jNMaXF gQHrBF dffaWn gmIQkj&quot; style=&quot;border: 0px; font-size: 12px; font-style: inherit; font-variant: inherit; font-weight: 500; margin: 0px; padding: 0px; vertical-align: baseline; color: rgb(32, 33, 36); line-height: 16px; overflow: hidden; text-overflow: ellipsis;&quot;&gt;&lt;/span&gt;&lt;/div&gt;FK" style="text;whiteSpace=wrap;html=1;swimlaneLine=1;fontFamily=Helvetica;" parent="4_MRTfHyWY46cSX3TB6Z-3" vertex="1">
          <mxGeometry x="8.5" y="157" width="31.5" height="25" as="geometry" />
        </mxCell>
        <mxCell id="4_MRTfHyWY46cSX3TB6Z-47" value="" style="line;strokeWidth=1;direction=south;html=1;perimeter=backbonePerimeter;points=[];outlineConnect=0;" parent="4_MRTfHyWY46cSX3TB6Z-3" vertex="1">
          <mxGeometry x="218.5" y="23" width="10" height="317" as="geometry" />
        </mxCell>
        <mxCell id="4_MRTfHyWY46cSX3TB6Z-48" value="&lt;span style=&quot;color: rgb(32, 33, 36); font-size: 12px; font-style: normal; font-variant-ligatures: normal; font-variant-caps: normal; font-weight: 500; letter-spacing: normal; orphans: 2; text-align: left; text-indent: 0px; text-transform: none; widows: 2; word-spacing: 0px; -webkit-text-stroke-width: 0px; background-color: rgb(255, 255, 255); text-decoration-thickness: initial; text-decoration-style: initial; text-decoration-color: initial; float: none; display: inline !important;&quot;&gt;INT&lt;/span&gt;" style="text;whiteSpace=wrap;html=1;fontFamily=Helvetica;" parent="4_MRTfHyWY46cSX3TB6Z-3" vertex="1">
          <mxGeometry x="228.5" y="35" width="70" height="25" as="geometry" />
        </mxCell>
        <mxCell id="4_MRTfHyWY46cSX3TB6Z-49" value="&lt;span style=&quot;color: rgb(32, 33, 36); font-size: 12px; font-style: normal; font-variant-ligatures: normal; font-variant-caps: normal; font-weight: 500; letter-spacing: normal; orphans: 2; text-align: left; text-indent: 0px; text-transform: none; widows: 2; word-spacing: 0px; -webkit-text-stroke-width: 0px; background-color: rgb(255, 255, 255); text-decoration-thickness: initial; text-decoration-style: initial; text-decoration-color: initial; float: none; display: inline !important;&quot;&gt;INT&lt;/span&gt;" style="text;whiteSpace=wrap;html=1;fontFamily=Helvetica;" parent="4_MRTfHyWY46cSX3TB6Z-3" vertex="1">
          <mxGeometry x="228.5" y="66" width="70" height="25" as="geometry" />
        </mxCell>
        <mxCell id="4_MRTfHyWY46cSX3TB6Z-69" value="&lt;span style=&quot;color: rgb(32, 33, 36); font-size: 12px; font-style: normal; font-variant-ligatures: normal; font-variant-caps: normal; font-weight: 500; letter-spacing: normal; orphans: 2; text-align: left; text-indent: 0px; text-transform: none; widows: 2; word-spacing: 0px; -webkit-text-stroke-width: 0px; background-color: rgb(255, 255, 255); text-decoration-thickness: initial; text-decoration-style: initial; text-decoration-color: initial; float: none; display: inline !important;&quot;&gt;INT&lt;/span&gt;" style="text;whiteSpace=wrap;html=1;fontFamily=Helvetica;" parent="4_MRTfHyWY46cSX3TB6Z-3" vertex="1">
          <mxGeometry x="228.5" y="96" width="70" height="25" as="geometry" />
        </mxCell>
        <mxCell id="4_MRTfHyWY46cSX3TB6Z-70" value="&lt;span style=&quot;color: rgb(32, 33, 36); font-size: 12px; font-style: normal; font-variant-ligatures: normal; font-variant-caps: normal; font-weight: 500; letter-spacing: normal; orphans: 2; text-align: left; text-indent: 0px; text-transform: none; widows: 2; word-spacing: 0px; -webkit-text-stroke-width: 0px; background-color: rgb(255, 255, 255); text-decoration-thickness: initial; text-decoration-style: initial; text-decoration-color: initial; float: none; display: inline !important;&quot;&gt;INT&lt;/span&gt;" style="text;whiteSpace=wrap;html=1;fontFamily=Helvetica;" parent="4_MRTfHyWY46cSX3TB6Z-3" vertex="1">
          <mxGeometry x="228.5" y="127" width="70" height="25" as="geometry" />
        </mxCell>
        <mxCell id="4_MRTfHyWY46cSX3TB6Z-71" value="&lt;font size=&quot;1&quot; color=&quot;#202124&quot;&gt;&lt;span style=&quot;background-color: rgb(255, 255, 255); font-size: 12px;&quot;&gt;nchar(2)&lt;/span&gt;&lt;/font&gt;" style="text;whiteSpace=wrap;html=1;fontFamily=Helvetica;" parent="4_MRTfHyWY46cSX3TB6Z-3" vertex="1">
          <mxGeometry x="228.5" y="157" width="70" height="25" as="geometry" />
        </mxCell>
        <mxCell id="4_MRTfHyWY46cSX3TB6Z-72" value="&lt;span style=&quot;color: rgb(32, 33, 36); font-size: 12px; font-style: normal; font-variant-ligatures: normal; font-variant-caps: normal; font-weight: 500; letter-spacing: normal; orphans: 2; text-align: left; text-indent: 0px; text-transform: none; widows: 2; word-spacing: 0px; -webkit-text-stroke-width: 0px; background-color: rgb(255, 255, 255); text-decoration-thickness: initial; text-decoration-style: initial; text-decoration-color: initial; float: none; display: inline !important;&quot;&gt;INT&lt;/span&gt;" style="text;whiteSpace=wrap;html=1;fontFamily=Helvetica;" parent="4_MRTfHyWY46cSX3TB6Z-3" vertex="1">
          <mxGeometry x="228.5" y="188" width="70" height="25" as="geometry" />
        </mxCell>
        <mxCell id="4_MRTfHyWY46cSX3TB6Z-73" value="&lt;span style=&quot;color: rgb(32, 33, 36); font-size: 12px; font-style: normal; font-variant-ligatures: normal; font-variant-caps: normal; font-weight: 500; letter-spacing: normal; orphans: 2; text-align: left; text-indent: 0px; text-transform: none; widows: 2; word-spacing: 0px; -webkit-text-stroke-width: 0px; background-color: rgb(255, 255, 255); text-decoration-thickness: initial; text-decoration-style: initial; text-decoration-color: initial; float: none; display: inline !important;&quot;&gt;nchar(6)&lt;/span&gt;" style="text;whiteSpace=wrap;html=1;fontFamily=Helvetica;" parent="4_MRTfHyWY46cSX3TB6Z-3" vertex="1">
          <mxGeometry x="228.5" y="218" width="70" height="25" as="geometry" />
        </mxCell>
        <mxCell id="4_MRTfHyWY46cSX3TB6Z-74" value="&lt;span style=&quot;color: rgb(32, 33, 36); font-size: 12px; font-style: normal; font-variant-ligatures: normal; font-variant-caps: normal; font-weight: 500; letter-spacing: normal; orphans: 2; text-align: left; text-indent: 0px; text-transform: none; widows: 2; word-spacing: 0px; -webkit-text-stroke-width: 0px; background-color: rgb(255, 255, 255); text-decoration-thickness: initial; text-decoration-style: initial; text-decoration-color: initial; float: none; display: inline !important;&quot;&gt;nchar(3)&lt;/span&gt;" style="text;whiteSpace=wrap;html=1;fontFamily=Helvetica;" parent="4_MRTfHyWY46cSX3TB6Z-3" vertex="1">
          <mxGeometry x="228.5" y="249" width="70" height="25" as="geometry" />
        </mxCell>
        <mxCell id="4_MRTfHyWY46cSX3TB6Z-75" value="&lt;span style=&quot;color: rgb(32, 33, 36); font-size: 12px; font-style: normal; font-variant-ligatures: normal; font-variant-caps: normal; font-weight: 500; letter-spacing: normal; orphans: 2; text-align: left; text-indent: 0px; text-transform: none; widows: 2; word-spacing: 0px; -webkit-text-stroke-width: 0px; background-color: rgb(255, 255, 255); text-decoration-thickness: initial; text-decoration-style: initial; text-decoration-color: initial; float: none; display: inline !important;&quot;&gt;nchar(3)&lt;/span&gt;" style="text;whiteSpace=wrap;html=1;fontFamily=Helvetica;" parent="4_MRTfHyWY46cSX3TB6Z-3" vertex="1">
          <mxGeometry x="228.5" y="279" width="70" height="25" as="geometry" />
        </mxCell>
        <mxCell id="4_MRTfHyWY46cSX3TB6Z-76" value="&lt;span style=&quot;color: rgb(32, 33, 36); font-size: 12px; font-style: normal; font-variant-ligatures: normal; font-variant-caps: normal; font-weight: 500; letter-spacing: normal; orphans: 2; text-align: left; text-indent: 0px; text-transform: none; widows: 2; word-spacing: 0px; -webkit-text-stroke-width: 0px; background-color: rgb(255, 255, 255); text-decoration-thickness: initial; text-decoration-style: initial; text-decoration-color: initial; float: none; display: inline !important;&quot;&gt;nchar(4)&lt;/span&gt;" style="text;whiteSpace=wrap;html=1;fontFamily=Helvetica;" parent="4_MRTfHyWY46cSX3TB6Z-3" vertex="1">
          <mxGeometry x="228.5" y="310" width="70" height="25" as="geometry" />
        </mxCell>
        <mxCell id="NwDb9xySnJjGsqBKiU09-1" value="" style="endArrow=none;html=1;rounded=0;entryX=1;entryY=0;entryDx=0;entryDy=0;exitX=0;exitY=0;exitDx=0;exitDy=0;" edge="1" parent="4_MRTfHyWY46cSX3TB6Z-3" source="4_MRTfHyWY46cSX3TB6Z-41" target="4_MRTfHyWY46cSX3TB6Z-72">
          <mxGeometry width="50" height="50" relative="1" as="geometry">
            <mxPoint x="60" y="196" as="sourcePoint" />
            <mxPoint x="110" y="146" as="targetPoint" />
          </mxGeometry>
        </mxCell>
        <mxCell id="NwDb9xySnJjGsqBKiU09-2" value="" style="endArrow=none;html=1;rounded=0;entryX=1;entryY=0;entryDx=0;entryDy=0;exitX=0;exitY=0;exitDx=0;exitDy=0;fontFamily=Helvetica;" edge="1" parent="4_MRTfHyWY46cSX3TB6Z-3">
          <mxGeometry width="50" height="50" relative="1" as="geometry">
            <mxPoint x="8.5" y="213" as="sourcePoint" />
            <mxPoint x="298.5" y="213" as="targetPoint" />
          </mxGeometry>
        </mxCell>
        <mxCell id="NwDb9xySnJjGsqBKiU09-3" value="" style="endArrow=none;html=1;rounded=0;entryX=1;entryY=0;entryDx=0;entryDy=0;exitX=0;exitY=0;exitDx=0;exitDy=0;" edge="1" parent="4_MRTfHyWY46cSX3TB6Z-3">
          <mxGeometry width="50" height="50" relative="1" as="geometry">
            <mxPoint x="10" y="249" as="sourcePoint" />
            <mxPoint x="300" y="249" as="targetPoint" />
          </mxGeometry>
        </mxCell>
        <mxCell id="NwDb9xySnJjGsqBKiU09-4" value="" style="endArrow=none;html=1;rounded=0;entryX=1;entryY=0;entryDx=0;entryDy=0;exitX=0;exitY=0;exitDx=0;exitDy=0;fontFamily=Helvetica;" edge="1" parent="4_MRTfHyWY46cSX3TB6Z-3">
          <mxGeometry width="50" height="50" relative="1" as="geometry">
            <mxPoint x="10" y="279" as="sourcePoint" />
            <mxPoint x="300" y="279" as="targetPoint" />
          </mxGeometry>
        </mxCell>
        <mxCell id="NwDb9xySnJjGsqBKiU09-5" value="" style="endArrow=none;html=1;rounded=0;entryX=1;entryY=0;entryDx=0;entryDy=0;exitX=0;exitY=0;exitDx=0;exitDy=0;" edge="1" parent="4_MRTfHyWY46cSX3TB6Z-3">
          <mxGeometry width="50" height="50" relative="1" as="geometry">
            <mxPoint x="10" y="309" as="sourcePoint" />
            <mxPoint x="300" y="309" as="targetPoint" />
          </mxGeometry>
        </mxCell>
        <mxCell id="NwDb9xySnJjGsqBKiU09-10" value="" style="endArrow=none;html=1;rounded=0;entryX=1;entryY=0;entryDx=0;entryDy=0;exitX=0;exitY=0;exitDx=0;exitDy=0;" edge="1" parent="4_MRTfHyWY46cSX3TB6Z-3">
          <mxGeometry width="50" height="50" relative="1" as="geometry">
            <mxPoint x="10" y="160" as="sourcePoint" />
            <mxPoint x="300" y="160" as="targetPoint" />
          </mxGeometry>
        </mxCell>
        <mxCell id="4_MRTfHyWY46cSX3TB6Z-18" value="Airports&lt;br&gt;" style="swimlane;whiteSpace=wrap;html=1;swimlaneLine=1;gradientColor=none;" parent="1" vertex="1">
          <mxGeometry x="-60" y="469" width="220" height="230" as="geometry" />
        </mxCell>
        <mxCell id="4_MRTfHyWY46cSX3TB6Z-19" value="&lt;div class=&quot;sc-kYBQfq iOkql&quot; style=&quot;border: 0px; font-family: Inter, sans-serif; font-size: 12px; font-style: normal; font-variant-ligatures: normal; font-variant-caps: normal; font-variant-alternates: inherit; font-variant-numeric: inherit; font-variant-east-asian: inherit; font-variant-position: inherit; font-weight: 400; margin: 0px; padding: 0px; vertical-align: baseline; -webkit-box-align: center; align-items: center; cursor: default; display: grid; grid-template-columns: auto 1fr auto; column-gap: 4px; color: rgb(95, 99, 104); letter-spacing: normal; orphans: 2; text-align: left; text-indent: 0px; text-transform: none; widows: 2; word-spacing: 0px; -webkit-text-stroke-width: 0px; background-color: rgb(255, 255, 255); text-decoration-thickness: initial; text-decoration-style: initial; text-decoration-color: initial;&quot;&gt;&lt;span title=&quot;DAY&quot; class=&quot;sc-ilEZps sc-jItqcz sc-jNMaXF gQHrBF dffaWn gmIQkj&quot; style=&quot;border: 0px; font-family: inherit; font-size: 12px; font-style: inherit; font-variant: inherit; font-weight: 500; margin: 0px; padding: 0px; vertical-align: baseline; color: rgb(32, 33, 36); line-height: 16px; overflow: hidden; text-overflow: ellipsis;&quot;&gt;&lt;/span&gt;&lt;/div&gt;CITY" style="text;whiteSpace=wrap;html=1;swimlaneLine=1;" parent="4_MRTfHyWY46cSX3TB6Z-18" vertex="1">
          <mxGeometry x="50" y="82" width="49.6" height="25" as="geometry" />
        </mxCell>
        <mxCell id="4_MRTfHyWY46cSX3TB6Z-20" value="STATE" style="text;whiteSpace=wrap;html=1;swimlaneLine=1;" parent="4_MRTfHyWY46cSX3TB6Z-18" vertex="1">
          <mxGeometry x="50" y="113" width="120" height="25" as="geometry" />
        </mxCell>
        <mxCell id="4_MRTfHyWY46cSX3TB6Z-21" value="COUNTRY" style="text;whiteSpace=wrap;html=1;swimlaneLine=1;" parent="4_MRTfHyWY46cSX3TB6Z-18" vertex="1">
          <mxGeometry x="50" y="143" width="80" height="25" as="geometry" />
        </mxCell>
        <mxCell id="4_MRTfHyWY46cSX3TB6Z-22" value="&lt;div class=&quot;sc-kYBQfq iOkql&quot; style=&quot;border: 0px; font-family: Inter, sans-serif; font-size: 12px; font-style: normal; font-variant-ligatures: normal; font-variant-caps: normal; font-variant-alternates: inherit; font-variant-numeric: inherit; font-variant-east-asian: inherit; font-variant-position: inherit; font-weight: 400; margin: 0px; padding: 0px; vertical-align: baseline; -webkit-box-align: center; align-items: center; cursor: default; display: grid; grid-template-columns: auto 1fr auto; column-gap: 4px; color: rgb(95, 99, 104); letter-spacing: normal; orphans: 2; text-align: left; text-indent: 0px; text-transform: none; widows: 2; word-spacing: 0px; -webkit-text-stroke-width: 0px; background-color: rgb(255, 255, 255); text-decoration-thickness: initial; text-decoration-style: initial; text-decoration-color: initial;&quot;&gt;&lt;span title=&quot;FLIGHT_NUMBER&quot; class=&quot;sc-ilEZps sc-jItqcz sc-jNMaXF gQHrBF dffaWn gmIQkj&quot; style=&quot;border: 0px; font-family: inherit; font-size: 12px; font-style: inherit; font-variant: inherit; font-weight: 500; margin: 0px; padding: 0px; vertical-align: baseline; color: rgb(32, 33, 36); line-height: 16px; overflow: hidden; text-overflow: ellipsis;&quot;&gt;&lt;/span&gt;&lt;/div&gt;LATITUDE" style="text;whiteSpace=wrap;html=1;swimlaneLine=1;" parent="4_MRTfHyWY46cSX3TB6Z-18" vertex="1">
          <mxGeometry x="50" y="174" width="140" height="25" as="geometry" />
        </mxCell>
        <mxCell id="4_MRTfHyWY46cSX3TB6Z-23" value="LONGITUDE" style="text;whiteSpace=wrap;html=1;swimlaneLine=1;" parent="4_MRTfHyWY46cSX3TB6Z-18" vertex="1">
          <mxGeometry x="50" y="204" width="120" height="25" as="geometry" />
        </mxCell>
        <mxCell id="4_MRTfHyWY46cSX3TB6Z-27" value="IATA_CODE" style="text;whiteSpace=wrap;html=1;" parent="4_MRTfHyWY46cSX3TB6Z-18" vertex="1">
          <mxGeometry x="50" y="21" width="70" height="25" as="geometry" />
        </mxCell>
        <mxCell id="4_MRTfHyWY46cSX3TB6Z-28" value="AIRPORT" style="text;whiteSpace=wrap;html=1;" parent="4_MRTfHyWY46cSX3TB6Z-18" vertex="1">
          <mxGeometry x="50" y="52" width="80" height="25" as="geometry" />
        </mxCell>
        <mxCell id="4_MRTfHyWY46cSX3TB6Z-77" value="" style="line;strokeWidth=1;direction=south;html=1;perimeter=backbonePerimeter;points=[];outlineConnect=0;" parent="4_MRTfHyWY46cSX3TB6Z-18" vertex="1">
          <mxGeometry x="40" y="22" width="10" height="207" as="geometry" />
        </mxCell>
        <mxCell id="4_MRTfHyWY46cSX3TB6Z-79" value="&lt;div class=&quot;sc-kYBQfq iOkql&quot; style=&quot;border: 0px; font-family: Inter, sans-serif; font-size: 12px; font-style: normal; font-variant-ligatures: normal; font-variant-caps: normal; font-variant-alternates: inherit; font-variant-numeric: inherit; font-variant-east-asian: inherit; font-variant-position: inherit; font-weight: 400; margin: 0px; padding: 0px; vertical-align: baseline; -webkit-box-align: center; align-items: center; cursor: default; display: grid; grid-template-columns: auto 1fr auto; column-gap: 4px; color: rgb(95, 99, 104); letter-spacing: normal; orphans: 2; text-align: left; text-indent: 0px; text-transform: none; widows: 2; word-spacing: 0px; -webkit-text-stroke-width: 0px; background-color: rgb(255, 255, 255); text-decoration-thickness: initial; text-decoration-style: initial; text-decoration-color: initial;&quot;&gt;&lt;span title=&quot;FLIGHT_NUMBER&quot; class=&quot;sc-ilEZps sc-jItqcz sc-jNMaXF gQHrBF dffaWn gmIQkj&quot; style=&quot;border: 0px; font-family: inherit; font-size: 12px; font-style: inherit; font-variant: inherit; font-weight: 500; margin: 0px; padding: 0px; vertical-align: baseline; color: rgb(32, 33, 36); line-height: 16px; overflow: hidden; text-overflow: ellipsis;&quot;&gt;&lt;/span&gt;&lt;/div&gt;PK" style="text;whiteSpace=wrap;html=1;swimlaneLine=1;" parent="4_MRTfHyWY46cSX3TB6Z-18" vertex="1">
          <mxGeometry x="8.5" y="21" width="31.5" height="25" as="geometry" />
        </mxCell>
        <mxCell id="4_MRTfHyWY46cSX3TB6Z-80" value="" style="line;strokeWidth=1;direction=south;html=1;perimeter=backbonePerimeter;points=[];outlineConnect=0;" parent="4_MRTfHyWY46cSX3TB6Z-18" vertex="1">
          <mxGeometry x="140" y="23" width="10" height="207" as="geometry" />
        </mxCell>
        <mxCell id="4_MRTfHyWY46cSX3TB6Z-81" value="&lt;span style=&quot;color: rgb(32, 33, 36); font-family: Inter, sans-serif; font-size: 12px; font-style: normal; font-variant-ligatures: normal; font-variant-caps: normal; font-weight: 500; letter-spacing: normal; orphans: 2; text-align: left; text-indent: 0px; text-transform: none; widows: 2; word-spacing: 0px; -webkit-text-stroke-width: 0px; background-color: rgb(255, 255, 255); text-decoration-thickness: initial; text-decoration-style: initial; text-decoration-color: initial; float: none; display: inline !important;&quot;&gt;nchar(3)&lt;/span&gt;" style="text;whiteSpace=wrap;html=1;" parent="4_MRTfHyWY46cSX3TB6Z-18" vertex="1">
          <mxGeometry x="150" y="21" width="70" height="25" as="geometry" />
        </mxCell>
        <mxCell id="4_MRTfHyWY46cSX3TB6Z-82" value="&lt;span style=&quot;color: rgb(32, 33, 36); font-family: Inter, sans-serif; font-size: 12px; font-style: normal; font-variant-ligatures: normal; font-variant-caps: normal; font-weight: 500; letter-spacing: normal; orphans: 2; text-align: left; text-indent: 0px; text-transform: none; widows: 2; word-spacing: 0px; -webkit-text-stroke-width: 0px; background-color: rgb(255, 255, 255); text-decoration-thickness: initial; text-decoration-style: initial; text-decoration-color: initial; float: none; display: inline !important;&quot;&gt;nvarchar()&lt;/span&gt;" style="text;whiteSpace=wrap;html=1;" parent="4_MRTfHyWY46cSX3TB6Z-18" vertex="1">
          <mxGeometry x="150" y="52" width="70" height="25" as="geometry" />
        </mxCell>
        <mxCell id="4_MRTfHyWY46cSX3TB6Z-83" value="&lt;span style=&quot;color: rgb(32, 33, 36); font-family: Inter, sans-serif; font-size: 12px; font-style: normal; font-variant-ligatures: normal; font-variant-caps: normal; font-weight: 500; letter-spacing: normal; orphans: 2; text-align: left; text-indent: 0px; text-transform: none; widows: 2; word-spacing: 0px; -webkit-text-stroke-width: 0px; background-color: rgb(255, 255, 255); text-decoration-thickness: initial; text-decoration-style: initial; text-decoration-color: initial; float: none; display: inline !important;&quot;&gt;nvarchar()&lt;/span&gt;" style="text;whiteSpace=wrap;html=1;" parent="4_MRTfHyWY46cSX3TB6Z-18" vertex="1">
          <mxGeometry x="150" y="82" width="70" height="25" as="geometry" />
        </mxCell>
        <mxCell id="4_MRTfHyWY46cSX3TB6Z-86" value="&lt;span style=&quot;color: rgb(32, 33, 36); font-family: Inter, sans-serif; font-size: 12px; font-style: normal; font-variant-ligatures: normal; font-variant-caps: normal; font-weight: 500; letter-spacing: normal; orphans: 2; text-align: left; text-indent: 0px; text-transform: none; widows: 2; word-spacing: 0px; -webkit-text-stroke-width: 0px; background-color: rgb(255, 255, 255); text-decoration-thickness: initial; text-decoration-style: initial; text-decoration-color: initial; float: none; display: inline !important;&quot;&gt;nchar(2)&lt;/span&gt;" style="text;whiteSpace=wrap;html=1;" parent="4_MRTfHyWY46cSX3TB6Z-18" vertex="1">
          <mxGeometry x="150" y="112" width="60" height="25" as="geometry" />
        </mxCell>
        <mxCell id="4_MRTfHyWY46cSX3TB6Z-87" value="&lt;span style=&quot;color: rgb(32, 33, 36); font-family: Inter, sans-serif; font-size: 12px; font-style: normal; font-variant-ligatures: normal; font-variant-caps: normal; font-weight: 500; letter-spacing: normal; orphans: 2; text-align: left; text-indent: 0px; text-transform: none; widows: 2; word-spacing: 0px; -webkit-text-stroke-width: 0px; background-color: rgb(255, 255, 255); text-decoration-thickness: initial; text-decoration-style: initial; text-decoration-color: initial; float: none; display: inline !important;&quot;&gt;nvarchar()&lt;/span&gt;" style="text;whiteSpace=wrap;html=1;" parent="4_MRTfHyWY46cSX3TB6Z-18" vertex="1">
          <mxGeometry x="150" y="143" width="70" height="25" as="geometry" />
        </mxCell>
        <mxCell id="4_MRTfHyWY46cSX3TB6Z-88" value="&lt;span style=&quot;color: rgb(32, 33, 36); font-family: Inter, sans-serif; font-size: 12px; font-style: normal; font-variant-ligatures: normal; font-variant-caps: normal; font-weight: 500; letter-spacing: normal; orphans: 2; text-align: left; text-indent: 0px; text-transform: none; widows: 2; word-spacing: 0px; -webkit-text-stroke-width: 0px; background-color: rgb(255, 255, 255); text-decoration-thickness: initial; text-decoration-style: initial; text-decoration-color: initial; float: none; display: inline !important;&quot;&gt;float&lt;/span&gt;" style="text;whiteSpace=wrap;html=1;" parent="4_MRTfHyWY46cSX3TB6Z-18" vertex="1">
          <mxGeometry x="150" y="174" width="70" height="25" as="geometry" />
        </mxCell>
        <mxCell id="4_MRTfHyWY46cSX3TB6Z-89" value="&lt;span style=&quot;color: rgb(32, 33, 36); font-family: Inter, sans-serif; font-size: 12px; font-style: normal; font-variant-ligatures: normal; font-variant-caps: normal; font-weight: 500; letter-spacing: normal; orphans: 2; text-align: left; text-indent: 0px; text-transform: none; widows: 2; word-spacing: 0px; -webkit-text-stroke-width: 0px; background-color: rgb(255, 255, 255); text-decoration-thickness: initial; text-decoration-style: initial; text-decoration-color: initial; float: none; display: inline !important;&quot;&gt;nchar&lt;/span&gt;" style="text;whiteSpace=wrap;html=1;" parent="4_MRTfHyWY46cSX3TB6Z-18" vertex="1">
          <mxGeometry x="150" y="204" width="70" height="25" as="geometry" />
        </mxCell>
        <mxCell id="4_MRTfHyWY46cSX3TB6Z-30" value="Airlines" style="swimlane;whiteSpace=wrap;html=1;swimlaneLine=1;gradientColor=none;" parent="1" vertex="1">
          <mxGeometry x="680" y="528.75" width="210" height="110.5" as="geometry" />
        </mxCell>
        <mxCell id="4_MRTfHyWY46cSX3TB6Z-36" value="IATA_CODE" style="text;whiteSpace=wrap;html=1;" parent="4_MRTfHyWY46cSX3TB6Z-30" vertex="1">
          <mxGeometry x="50" y="30.25" width="70" height="25" as="geometry" />
        </mxCell>
        <mxCell id="4_MRTfHyWY46cSX3TB6Z-37" value="AIRLINE" style="text;whiteSpace=wrap;html=1;" parent="4_MRTfHyWY46cSX3TB6Z-30" vertex="1">
          <mxGeometry x="50" y="66" width="80" height="25" as="geometry" />
        </mxCell>
        <mxCell id="4_MRTfHyWY46cSX3TB6Z-91" value="&lt;div class=&quot;sc-kYBQfq iOkql&quot; style=&quot;border: 0px; font-family: Inter, sans-serif; font-size: 12px; font-style: normal; font-variant-ligatures: normal; font-variant-caps: normal; font-variant-alternates: inherit; font-variant-numeric: inherit; font-variant-east-asian: inherit; font-variant-position: inherit; font-weight: 400; margin: 0px; padding: 0px; vertical-align: baseline; -webkit-box-align: center; align-items: center; cursor: default; display: grid; grid-template-columns: auto 1fr auto; column-gap: 4px; color: rgb(95, 99, 104); letter-spacing: normal; orphans: 2; text-align: left; text-indent: 0px; text-transform: none; widows: 2; word-spacing: 0px; -webkit-text-stroke-width: 0px; background-color: rgb(255, 255, 255); text-decoration-thickness: initial; text-decoration-style: initial; text-decoration-color: initial;&quot;&gt;&lt;span title=&quot;FLIGHT_NUMBER&quot; class=&quot;sc-ilEZps sc-jItqcz sc-jNMaXF gQHrBF dffaWn gmIQkj&quot; style=&quot;border: 0px; font-family: inherit; font-size: 12px; font-style: inherit; font-variant: inherit; font-weight: 500; margin: 0px; padding: 0px; vertical-align: baseline; color: rgb(32, 33, 36); line-height: 16px; overflow: hidden; text-overflow: ellipsis;&quot;&gt;&lt;/span&gt;&lt;/div&gt;PK" style="text;whiteSpace=wrap;html=1;swimlaneLine=1;" parent="4_MRTfHyWY46cSX3TB6Z-30" vertex="1">
          <mxGeometry x="10" y="30.25" width="31.5" height="25" as="geometry" />
        </mxCell>
        <mxCell id="4_MRTfHyWY46cSX3TB6Z-92" value="" style="line;strokeWidth=1;direction=south;html=1;perimeter=backbonePerimeter;points=[];outlineConnect=0;" parent="4_MRTfHyWY46cSX3TB6Z-30" vertex="1">
          <mxGeometry x="130" y="23.5" width="10" height="87" as="geometry" />
        </mxCell>
        <mxCell id="4_MRTfHyWY46cSX3TB6Z-93" value="&lt;font face=&quot;Inter, sans-serif&quot; color=&quot;#202124&quot;&gt;&lt;span style=&quot;background-color: rgb(255, 255, 255);&quot;&gt;nchar(2)&lt;/span&gt;&lt;/font&gt;" style="text;whiteSpace=wrap;html=1;" parent="4_MRTfHyWY46cSX3TB6Z-30" vertex="1">
          <mxGeometry x="140" y="30.25" width="70" height="25" as="geometry" />
        </mxCell>
        <mxCell id="4_MRTfHyWY46cSX3TB6Z-94" value="&lt;span style=&quot;color: rgb(32, 33, 36); font-family: Inter, sans-serif; font-size: 12px; font-style: normal; font-variant-ligatures: normal; font-variant-caps: normal; font-weight: 500; letter-spacing: normal; orphans: 2; text-align: left; text-indent: 0px; text-transform: none; widows: 2; word-spacing: 0px; -webkit-text-stroke-width: 0px; background-color: rgb(255, 255, 255); text-decoration-thickness: initial; text-decoration-style: initial; text-decoration-color: initial; float: none; display: inline !important;&quot;&gt;nvarchar()&lt;/span&gt;" style="text;whiteSpace=wrap;html=1;" parent="4_MRTfHyWY46cSX3TB6Z-30" vertex="1">
          <mxGeometry x="140" y="66" width="70" height="25" as="geometry" />
        </mxCell>
        <mxCell id="4_MRTfHyWY46cSX3TB6Z-90" value="" style="line;strokeWidth=1;direction=south;html=1;perimeter=backbonePerimeter;points=[];outlineConnect=0;" parent="4_MRTfHyWY46cSX3TB6Z-30" vertex="1">
          <mxGeometry x="31.5" y="23.5" width="10" height="87" as="geometry" />
        </mxCell>
        <mxCell id="NwDb9xySnJjGsqBKiU09-11" value="" style="endArrow=none;html=1;rounded=0;entryX=1;entryY=0;entryDx=0;entryDy=0;" edge="1" parent="1" target="4_MRTfHyWY46cSX3TB6Z-82">
          <mxGeometry width="50" height="50" relative="1" as="geometry">
            <mxPoint x="-60" y="520" as="sourcePoint" />
            <mxPoint x="390" y="570" as="targetPoint" />
          </mxGeometry>
        </mxCell>
        <mxCell id="NwDb9xySnJjGsqBKiU09-12" value="" style="endArrow=none;html=1;rounded=0;entryX=1;entryY=0;entryDx=0;entryDy=0;" edge="1" parent="1" target="4_MRTfHyWY46cSX3TB6Z-94">
          <mxGeometry width="50" height="50" relative="1" as="geometry">
            <mxPoint x="680" y="595" as="sourcePoint" />
            <mxPoint x="390" y="570" as="targetPoint" />
          </mxGeometry>
        </mxCell>
        <mxCell id="NwDb9xySnJjGsqBKiU09-26" value="" style="edgeStyle=entityRelationEdgeStyle;fontSize=12;html=1;endArrow=ERoneToMany;startArrow=ERmandOne;rounded=0;exitX=1.023;exitY=0.614;exitDx=0;exitDy=0;exitPerimeter=0;" edge="1" parent="1" source="4_MRTfHyWY46cSX3TB6Z-81">
          <mxGeometry width="100" height="100" relative="1" as="geometry">
            <mxPoint x="160" y="510" as="sourcePoint" />
            <mxPoint x="280" y="701.25" as="targetPoint" />
          </mxGeometry>
        </mxCell>
        <mxCell id="NwDb9xySnJjGsqBKiU09-27" value="" style="edgeStyle=entityRelationEdgeStyle;fontSize=12;html=1;endArrow=ERmandOne;startArrow=ERmandOne;rounded=0;" edge="1" parent="1">
          <mxGeometry width="100" height="100" relative="1" as="geometry">
            <mxPoint x="580" y="600" as="sourcePoint" />
            <mxPoint x="680" y="570" as="targetPoint" />
          </mxGeometry>
        </mxCell>
      </root>
    </mxGraphModel>
  </diagram>
</mxfile>
